<?xml version="1.0" encoding="UTF-8"?>
<svg width="51px" height="70px" viewBox="0 0 51 70" version="1.1" xmlns="http://www.w3.org/2000/svg" xmlns:xlink="http://www.w3.org/1999/xlink">
    <!-- Generator: Sketch 55.2 (78181) - https://sketchapp.com -->
    <title>icons8-task_completed</title>
    <desc>Created with Sketch.</desc>
    <g id="Desktop" stroke="none" stroke-width="1" fill="none" fill-rule="evenodd">
        <g transform="translate(-336.000000, -953.000000)" fill-rule="nonzero" id="Why-us">
            <g transform="translate(120.000000, 753.000000)">
                <g id="1" transform="translate(102.000000, 200.000000)">
                    <g id="Text">
                        <g id="icons8-task_completed" transform="translate(114.000000, 0.000000)">
                            <path d="M44.625,6.36363636 L28.6875,6.36363636 C28.6875,8.11363636 27.253125,9.54545455 25.5,9.54545455 C23.746875,9.54545455 22.3125,8.11363636 22.3125,6.36363636 L6.375,6.36363636 C2.86875,6.36363636 0,9.22727273 0,12.7272727 L0,63.6363636 C0,67.1363636 2.86875,70 6.375,70 L44.625,70 C48.13125,70 51,67.1363636 51,63.6363636 L51,12.7272727 C51,9.22727273 48.13125,6.36363636 44.625,6.36363636 Z" id="Path" fill="#1F292E"></path>
                            <path d="M44.625,65.2272727 L6.375,65.2272727 C5.41875,65.2272727 4.78125,64.5909091 4.78125,63.6363636 L4.78125,12.7272727 C4.78125,11.7727273 5.41875,11.1363636 6.375,11.1363636 L44.625,11.1363636 C45.58125,11.1363636 46.21875,11.7727273 46.21875,12.7272727 L46.21875,63.6363636 C46.21875,64.5909091 45.58125,65.2272727 44.625,65.2272727 Z" id="Path" fill="#E5FFE6"></path>
                            <path d="M28.6875,6.36363636 C28.6875,8.11363636 27.253125,9.54545455 25.5,9.54545455 C23.746875,9.54545455 22.3125,8.11363636 22.3125,6.36363636 L11.15625,6.36363636 L11.15625,12.7272727 C11.15625,14.4772727 12.590625,15.9090909 14.34375,15.9090909 L36.65625,15.9090909 C38.409375,15.9090909 39.84375,14.4772727 39.84375,12.7272727 L39.84375,6.36363636 L28.6875,6.36363636 Z" id="Path" fill="#607884"></path>
                            <path d="M25.5,0 C21.99375,0 19.125,2.86363636 19.125,6.36363636 C19.125,9.86363636 21.99375,12.7272727 25.5,12.7272727 C29.00625,12.7272727 31.875,9.86363636 31.875,6.36363636 C31.875,2.86363636 29.00625,0 25.5,0 Z M25.5,9.54545455 C23.746875,9.54545455 22.3125,8.11363636 22.3125,6.36363636 C22.3125,4.61363636 23.746875,3.18181818 25.5,3.18181818 C27.253125,3.18181818 28.6875,4.61363636 28.6875,6.36363636 C28.6875,8.11363636 27.253125,9.54545455 25.5,9.54545455 Z" id="Shape" fill="#607884"></path>
                            <path d="M38.25,39.7727273 C38.25,46.7727273 32.5125,52.5 25.5,52.5 C18.4875,52.5 12.75,46.7727273 12.75,39.7727273 C12.75,32.7727273 18.4875,27.0454545 25.5,27.0454545 C32.5125,27.0454545 38.25,32.7727273 38.25,39.7727273" id="Path" fill="#4CAF50"></path>
                            <polygon id="Path" fill="#E8F5E9" points="24.0927188 46.1856818 17.9982187 40.1020455 20.2517813 37.8525 24.1182187 41.7120455 31.5578437 34.4590909 33.7859062 36.7340909"></polygon>
                        </g>
                    </g>
                </g>
            </g>
        </g>
    </g>
</svg>