<?xml version="1.0" encoding="UTF-8"?>
<svg width="77px" height="61px" viewBox="0 0 77 61" version="1.1" xmlns="http://www.w3.org/2000/svg" xmlns:xlink="http://www.w3.org/1999/xlink">
    <!-- Generator: Sketch 55.2 (78181) - https://sketchapp.com -->
    <title>icons8-prize_money</title>
    <desc>Created with Sketch.</desc>
    <g id="Desktop" stroke="none" stroke-width="1" fill="none" fill-rule="evenodd">
        <g transform="translate(-682.000000, -955.000000)" fill-rule="nonzero" id="Why-us">
            <g transform="translate(120.000000, 753.000000)">
                <g id="2" transform="translate(460.000000, 202.000000)">
                    <g id="text">
                        <g id="icons8-prize_money" transform="translate(102.000000, 0.000000)">
                            <path d="M25.5656042,48.1546842 C12.9985625,47.3568684 0,39.9341316 0,28.8947368 C0,22.4897368 4.48204167,17.6578947 10.4270833,17.6578947 C13.9033125,17.6578947 17.6458333,19.7302895 17.6458333,24.2796053 C17.6458333,27.9412105 15.2540208,30.5 11.8307292,30.5 C9.27047917,30.5 6.41666667,28.5223158 6.41666667,25.6842105 L9.625,25.6842105 C9.625,26.4499211 10.78,27.2894737 11.8307292,27.2894737 C14.2498125,27.2894737 14.4375,24.9843158 14.4375,24.2796053 C14.4375,21.7625526 12.2766875,20.8684211 10.4270833,20.8684211 C6.31239583,20.8684211 3.20833333,24.3181316 3.20833333,28.8947368 C3.20833333,38.0479474 14.678125,44.2458684 25.7677292,44.9505789 L25.5656042,48.1546842 Z" id="Path" fill="#D68F01"></path>
                            <path d="M51.4343958,48.1546842 L51.2306667,44.9505789 C62.321875,44.2458684 73.7916667,38.0479474 73.7916667,28.8947368 C73.7916667,24.3181316 70.6876042,20.8684211 66.5729167,20.8684211 C64.7233125,20.8684211 62.5625,21.7625526 62.5625,24.2796053 C62.5625,24.9843158 62.7501875,27.2894737 65.1692708,27.2894737 C66.22,27.2894737 67.375,26.4499211 67.375,25.6842105 L70.5833333,25.6842105 C70.5833333,28.5223158 67.7295208,30.5 65.1692708,30.5 C61.7459792,30.5 59.3541667,27.9412105 59.3541667,24.2796053 C59.3541667,19.7302895 63.0966875,17.6578947 66.5729167,17.6578947 C72.5179583,17.6578947 77,22.4897368 77,28.8947368 C77,39.9341316 64.0014375,47.3568684 51.4343958,48.1546842 Z" id="Path" fill="#D68F01"></path>
                            <polygon id="Path" fill="#D68F01" points="43.3125 56.1842105 43.3125 57.7894737 33.6875 57.7894737 33.6875 56.1842105 30.4791667 36.9210526 46.5208333 36.9210526"></polygon>
                            <path d="M51.3333333,61 L25.6666667,61 L25.6666667,59.0736842 C25.6666667,58.0093947 33.6875,56.1842105 33.6875,56.1842105 L43.3125,56.1842105 C43.3125,56.1842105 51.3333333,58.0093947 51.3333333,59.0736842 L51.3333333,61 Z" id="Path" fill="#FFAA00"></path>
                            <rect id="Rectangle" fill="#A5D6A7" x="25.6666667" y="1.60526316" width="25.6666667" height="30.5"></rect>
                            <ellipse id="Oval" fill="#388E3C" cx="38.5" cy="11.2368421" rx="3.20833333" ry="3.21052632"></ellipse>
                            <ellipse id="Oval" fill="#388E3C" cx="38.5" cy="25.6842105" rx="8.02083333" ry="8.02631579"></ellipse>
                            <path d="M27.2708333,3.21052632 L49.7291667,3.21052632 L49.7291667,30.5 L27.2708333,30.5 L27.2708333,3.21052632 L27.2708333,3.21052632 Z M24.0625,0 L24.0625,33.7105263 L52.9375,33.7105263 L52.9375,0 L24.0625,0 L24.0625,0 Z" id="Shape" fill="#388E3C"></path>
                            <rect id="Rectangle" fill="#1B5E20" x="24.0625" y="20.8684211" width="28.875" height="3.21052632"></rect>
                            <rect id="Rectangle" fill="#43A047" x="27.2708333" y="20.8684211" width="22.4583333" height="3.21052632"></rect>
                            <path d="M25.6666667,1.60526316 L25.6666667,7.20602632 C26.3388125,7.71328947 27.1665625,8.02631579 28.0729167,8.02631579 C30.2882708,8.02631579 32.0833333,6.23002632 32.0833333,4.01315789 C32.0833333,3.10618421 31.7705208,2.27786842 31.2636042,1.60526316 L25.6666667,1.60526316 Z" id="Path" fill="#388E3C"></path>
                            <path d="M45.7363958,1.60526316 C45.2294792,2.27786842 44.9166667,3.10618421 44.9166667,4.01315789 C44.9166667,6.23002632 46.7117292,8.02631579 48.9270833,8.02631579 C49.8334375,8.02631579 50.6611875,7.71328947 51.3333333,7.20602632 L51.3333333,1.60526316 L45.7363958,1.60526316 Z" id="Path" fill="#388E3C"></path>
                            <path d="M32.1202292,20.8684211 C31.1047917,22.2136316 30.4791667,23.8686579 30.4791667,25.6842105 C30.4791667,30.1163421 34.0708958,33.7105263 38.5,33.7105263 C42.9291042,33.7105263 46.5208333,30.1163421 46.5208333,25.6842105 C46.5208333,23.8686579 45.8952083,22.2136316 44.8797708,20.8684211 L32.1202292,20.8684211 Z" id="Path" fill="#1B5E20"></path>
                            <path d="M41.7083333,51.3684211 L35.2916667,51.3684211 C23.77375,51.3684211 14.4375,42.0257895 14.4375,30.5 L14.4375,24.0789474 L62.5625,24.0789474 L62.5625,30.5 C62.5625,42.0257895 53.22625,51.3684211 41.7083333,51.3684211 Z" id="Path" fill="#FFAA00"></path>
                        </g>
                    </g>
                </g>
            </g>
        </g>
    </g>
</svg>