<?xml version="1.0" encoding="UTF-8"?>
<svg width="20px" height="16px" viewBox="0 0 20 16" version="1.1" xmlns="http://www.w3.org/2000/svg" xmlns:xlink="http://www.w3.org/1999/xlink">
    <!-- Generator: Sketch 53.2 (72643) - https://sketchapp.com -->
    <title>Mail</title>
    <desc>Created with Sketch.</desc>
    <g id="Website" stroke="none" stroke-width="1" fill="none" fill-rule="evenodd">
        <g id="Desktop" transform="translate(-329.000000, -5078.000000)" fill="#FFFFFF" fill-rule="nonzero">
            <g id="Footer" transform="translate(0.000000, 4719.000000)">
                <g id="Email" transform="translate(329.000000, 359.000000)">
                    <g id="Mail">
                        <path d="M2,0 C1.334,0 0.7467656,0.3270781 0.3847656,0.8300781 C0.1407656,1.1680781 0.2485625,1.6471875 0.6015625,1.8671875 L9.382812,7.339844 C9.760812,7.575844 10.239187,7.575844 10.617188,7.339844 L19.361328,1.8203125 C19.728328,1.5883125 19.819828,1.0840937 19.548828,0.7460938 C19.183828,0.2920937 18.627,0 18,0 L2,0 Z M19.515625,4.0859375 C19.432,4.0868594 19.347078,4.1099062 19.267578,4.1601562 L10.617188,9.615234 C10.239187,9.850234 9.760812,9.849281 9.382812,9.613281 L0.7304688,4.2226562 C0.4124687,4.0246562 0,4.2539062 0,4.6289062 L0,14 C0,15.105 0.895,16 2,16 L18,16 C19.105,16 20,15.105 20,14 L20,4.5644531 C20,4.2824531 19.7665,4.0831719 19.515625,4.0859375 Z" id="Shape"></path>
                    </g>
                </g>
            </g>
        </g>
    </g>
</svg>